:SAMPLES-PER-SECOND 30
:FULLY-SPECIFIED
:DEGREES
563
root  -40.3267 33.0124 34.5926 -171.856 46.828 178.228
RightUpLeg  -14.9141 -22.8471 -5.82289
RightLeg  59.9627 -7.56468 -11.2374
RightFoot  12.7702 0.380368 -2.78921
RightToes  -34.7241 -0.177768 -0.283422
Spine  -0.0898783 1.95467 -1.14028
Spine1  -0.180665 4.11768 -1.69792
HEad  -62.6948 3.45833 -3.04179
LeftShoulder1  -1.94126e-019 -3.10601e-018 -2.51263e-017
LeftArm  -4.84861 5.31827 -70.3683
LeftForeArm  25.6561 -52.6414 -12.7075
LeftHand  -0.703148 -3.2122 9.72578
RightShoulder  -4.96962e-017 0 -2.36833e-017
RightArm  -19.0178 14.67 67.2265
RightForeArm  47.3125 73.9255 35.8787
RightHand  -0.169511 0.0353501 -3.65432
LeftUpLeg  -28.7664 9.04101 -4.49315
LeftLeg  40.0575 9.53834 6.95277
LeftFoot  -9.23735 -0.154135 -1.74622
LeftToes  -10.7243 2.32378e-006 -5.43956e-008
564
root  -39.4979 33.2169 33.8924 -171.389 44.1622 178.945
RightUpLeg  -18.7472 -22.8253 -4.13166
RightLeg  64.5205 -6.23636 -11.1252
RightFoot  9.82362 0.215681 -1.90849
RightToes  -29.8897 -0.143162 -0.251199
Spine  -0.252225 2.40234 -1.41973
Spine1  -0.535164 5.12692 -2.36808
HEad  -62.6745 2.18846 -2.90044
LeftShoulder1  -1.94126e-019 -3.10601e-018 -2.51263e-017
LeftArm  -6.94405 0.348732 -66.831
LeftForeArm  26.9359 -60.0407 -17.2961
LeftHand  -0.697639 -2.83701 10.0665
RightShoulder  -4.96962e-017 0 -2.36833e-017
RightArm  -27.5263 22.9244 58.5003
RightForeArm  62.438 78.1082 54.6654
RightHand  -0.166084 -1.02916 -4.3176
LeftUpLeg  -26.1165 8.62046 -3.43173
LeftLeg  38.0084 7.79404 5.28453
LeftFoot  -9.39184 -0.125999 -1.37227
LeftToes  -12.3481 2.32378e-006 -5.43956e-008
565
root  -38.6044 33.5924 33.2217 -170.583 41.2939 -179.998
RightUpLeg  -22.0814 -22.6847 -1.60558
RightLeg  64.5309 -5.28751 -9.4937
RightFoot  8.05846 0.124951 -1.18801
RightToes  -29.6585 -0.141576 -0.249585
Spine  -0.393802 2.62578 -1.56934
Spine1  -0.892753 5.74405 -2.8178
HEad  -62.3225 1.54383 -3.13402
LeftShoulder1  -1.94126e-019 -3.10601e-018 -2.51263e-017
LeftArm  -9.7842 -4.74462 -63.5806
LeftForeArm  31.7534 -66.3296 -23.1403
LeftHand  -0.665263 -2.19206 10.3822
RightShoulder  -4.96962e-017 0 -2.36833e-017
RightArm  -38.77 29.559 49.4022
RightForeArm  83.9289 79.9731 77.2382
RightHand  -0.171044 -1.43267 -4.85061
LeftUpLeg  -23.0787 7.03758 -1.83755
LeftLeg  34.8198 7.07308 4.24906
LeftFoot  -8.30842 -0.085616 -1.01719
LeftToes  -14.2331 2.32378e-006 -5.43956e-008
566
root  -37.5656 34.0041 32.5485 -169.871 37.7875 -178.813
RightUpLeg  -24.3377 -23.0553 1.24839
RightLeg  60.8268 -5.76831 -8.9339
RightFoot  4.48575 0.0399977 -0.450642
RightToes  -28.1411 -0.131332 -0.238841
Spine  -0.535243 2.48427 -1.50915
Spine1  -1.22725 5.60555 -2.82836
HEad  -61.4489 0.948719 -3.70714
LeftShoulder1  -1.94126e-019 -3.10601e-018 -2.51263e-017
LeftArm  -12.3267 -9.36527 -60.7954
LeftForeArm  37.0129 -70.5083 -29.2447
LeftHand  -0.704862 -1.9594 11.3167
RightShoulder  -4.96962e-017 0 -2.36833e-017
RightArm  -50.4076 34.4584 40.5992
RightForeArm  101.686 80.1768 95.2623
RightHand  -0.18334 -1.92915 -5.89283
LeftUpLeg  -19.5442 4.83182 0.276256
LeftLeg  30.831 6.29673 3.21446
LeftFoot  -6.70195 -0.047191 -0.644426
LeftToes  -16.8311 2.32378e-006 -5.43956e-008
567
root  -36.5193 34.3821 31.9026 -169.181 34.7115 -177.852
RightUpLeg  -26.4613 -22.6183 3.83184
RightLeg  54.5058 -7.62999 -9.31101
RightFoot  2.03599 0.0101838 -0.0299566
RightToes  -26.5584 -0.120954 -0.227349
Spine  -0.657394 2.30086 -1.39586
Spine1  -1.49673 5.33348 -2.69426
HEad  -60.4893 0.561035 -4.05234
LeftShoulder1  -1.94126e-019 -3.10601e-018 -2.51263e-017
LeftArm  -15.3461 -13.3249 -59.3534
LeftForeArm  41.7045 -72.9728 -34.4617
LeftHand  -0.717401 -1.62334 12.0398
RightShoulder  -4.96962e-017 0 -2.36833e-017
RightArm  -61.418 38.1771 32.4016
RightForeArm  115.839 79.7847 108.218
RightHand  -0.17032 -2.5936 -6.63732
LeftUpLeg  -16.2916 3.72299 2.34664
LeftLeg  26.7274 4.70761 1.99564
LeftFoot  -4.70055 -0.0162331 -0.233997
LeftToes  -19.9565 2.32378e-006 -5.43956e-008
568
root  -35.4736 34.6868 31.2519 -168.684 31.5042 -176.964
RightUpLeg  -27.3525 -21.9207 5.60002
RightLeg  45.0792 -10.0337 -8.75927
RightFoot  2.67184 0.0187698 -0.237958
RightToes  -26.6123 -0.121303 -0.227745
Spine  -0.734694 2.01333 -1.27984
Spine1  -1.65402 4.81265 -2.5205
HEad  -59.4416 -0.108665 -3.77123
LeftShoulder1  -1.94126e-019 -3.10601e-018 -2.51263e-017
LeftArm  -17.327 -16.7953 -58.9532
LeftForeArm  44.5454 -74.1617 -37.7279
LeftHand  -0.737576 -1.56408 12.4728
RightShoulder  -4.96962e-017 0 -2.36833e-017
RightArm  -70.1789 40.0306 26.1447
RightForeArm  128.275 79.0616 118.786
RightHand  -0.170421 -3.17973 -8.31177
LeftUpLeg  -13.6357 2.13585 4.49037
LeftLeg  23.6603 3.4695 1.25686
LeftFoot  -3.22272 -0.00513459 -0.0210165
LeftToes  -20.0515 2.32378e-006 -5.43956e-008
569
root  -34.467 34.8365 30.5891 -168.524 28.5639 -176.7
RightUpLeg  -27.3677 -20.5116 5.92278
RightLeg  33.5272 -11.5307 -6.55109
RightFoot  4.74305 0.0555752 -0.752682
RightToes  -26.2649 -0.119064 -0.225186
Spine  -0.841991 1.78818 -1.33078
Spine1  -1.8738 4.38672 -2.64696
HEad  -58.2169 -0.979279 -3.02351
LeftShoulder1  -1.94126e-019 -3.10601e-018 -2.51263e-017
LeftArm  -18.2626 -19.4512 -59.7108
LeftForeArm  45.8875 -74.4328 -38.3909
LeftHand  -0.700641 -1.00578 12.8489
RightShoulder  -4.96962e-017 0 -2.36833e-017
RightArm  -75.5833 40.6518 22.5058
RightForeArm  139.285 77.706 129.257
RightHand  -0.116344 -4.29512 -10.7277
LeftUpLeg  -11.9788 -0.405576 5.97408
LeftLeg  22.3501 3.24838 1.09352
LeftFoot  -0.895371 -0.000112384 0.147093
LeftToes  -26.8169 2.32378e-006 -5.43956e-008
570
root  -33.463 34.8054 29.9302 -168.535 26.4045 -176.68
RightUpLeg  -26.7909 -16.3423 4.64779
RightLeg  21.5294 -10.4319 -3.33618
RightFoot  8.09741 0.129577 -1.24284
RightToes  -26.9295 -0.123359 -0.230069
Spine  -0.956005 1.74281 -1.36072
Spine1  -2.09731 4.31431 -2.7085
HEad  -57.1009 -1.5276 -2.32574
LeftShoulder1  -1.94126e-019 -3.10601e-018 -2.51263e-017
LeftArm  -18.7194 -19.8136 -61.5961
LeftForeArm  47.3183 -74.6938 -39.0295
LeftHand  -0.90031 -2.73572 13.0618
RightShoulder  -4.96962e-017 0 -2.36833e-017
RightArm  -76.7175 41.1366 21.6541
RightForeArm  150.939 75.846 138.632
RightHand  -0.0535417 -5.07898 -14.468
LeftUpLeg  -10.901 -3.11458 7.1205
LeftLeg  22.5895 4.11678 1.4053
LeftFoot  -1.29577 -0.000637994 0.105072
LeftToes  -25.9453 2.32378e-006 -5.43956e-008
571
root  -32.3868 34.5363 29.2157 -168.544 25.0579 -176.67
RightUpLeg  -26.8345 -11.155 2.75084
RightLeg  12.375 -4.78981 -0.730048
RightFoot  9.59836 0.0933333 -0.554553
RightToes  -28.1122 -0.13114 -0.238633
Spine  -1.17429 1.7512 -1.35598
Spine1  -2.4974 4.34758 -2.66951
HEad  -56.1817 -0.934046 -1.85185
LeftShoulder1  -1.94126e-019 -3.10601e-018 -2.51263e-017
LeftArm  -18.0888 -17.2139 -63.351
LeftForeArm  53.4906 -76.3109 -44.9957
LeftHand  -1.16121 -2.94672 16.3342
RightShoulder  -4.96962e-017 0 -2.36833e-017
RightArm  -73.5997 42.1203 24.0268
RightForeArm  161.207 73.6748 145.935
RightHand  0.0348019 -5.70244 -17.7474
LeftUpLeg  -10.6521 -6.24137 8.07034
LeftLeg  25.2619 5.77895 2.27692
LeftFoot  -1.66793 -0.00184535 0.0347307
LeftToes  -32.7795 2.32378e-006 -5.43956e-008
572
root  -31.2228 34.0318 28.4496 -169.005 24.2919 -175.914
RightUpLeg  -26.8799 -6.88523 1.86229
RightLeg  7.48207 3.73736 0.249263
RightFoot  10.9574 -0.0382381 0.910564
RightToes  -36.6408 -0.19222 -0.295371
Spine  -1.22119 1.89128 -1.09784
Spine1  -2.5433 4.65727 -2.13507
HEad  -54.8337 0.136389 -1.4904
LeftShoulder1  -1.94126e-019 -3.10601e-018 -2.51263e-017
LeftArm  -16.8907 -13.3734 -65.0997
LeftForeArm  64.0247 -78.0484 -53.7602
LeftHand  -0.97676 -1.51996 16.5277
RightShoulder  -4.96962e-017 0 -2.36833e-017
RightArm  -67.4844 42.6157 29.2611
RightForeArm  166.63 72.0444 149.862
RightHand  -0.00694988 -5.42833 -17.5242
LeftUpLeg  -10.6328 -8.2697 9.66319
LeftLeg  30.6919 6.6404 3.3688
LeftFoot  -3.97025 -0.0157938 -0.294144
LeftToes  -37.9918 2.32378e-006 -5.43956e-008
